<svg width="24" height="30" viewBox="0 0 24 30" fill="none" xmlns="http://www.w3.org/2000/svg">
<path d="M23.64 7.82143L15.24 0.321429C15 0.107143 14.76 0 14.4 0H2.4C1.08 0 0 0.964286 0 2.14286V27.8571C0 29.0357 1.08 30 2.4 30H21.6C22.92 30 24 29.0357 24 27.8571V8.57143C24 8.25 23.88 8.03571 23.64 7.82143ZM14.4 2.57143L21.12 8.57143H14.4V2.57143ZM21.6 27.8571H2.4V2.14286H12V8.57143C12 9.75 13.08 10.7143 14.4 10.7143H21.6V27.8571Z" fill="white"/>
<path d="M4.79993 21.4287H19.1999V23.5716H4.79993V21.4287Z" fill="white"/>
<path d="M4.79993 15H19.1999V17.1429H4.79993V15Z" fill="white"/>
</svg>
