<svg width="30" height="31" viewBox="0 0 30 31" fill="none" xmlns="http://www.w3.org/2000/svg">
<g clip-path="url(#clip0_63_50)">
<path d="M23.6431 3.76033H22.3988V1.25342H19.91V3.76033H9.95502V1.25342H7.46627V3.76033H6.2219C4.85309 3.76033 3.73315 4.88844 3.73315 6.26724V23.8156C3.73315 25.1944 4.85309 26.3225 6.2219 26.3225H23.6431C25.0119 26.3225 26.1319 25.1944 26.1319 23.8156V6.26724C26.1319 4.88844 25.0119 3.76033 23.6431 3.76033ZM23.6431 23.8156H6.2219V11.2811H23.6431V23.8156ZM6.2219 8.77416V6.26724H23.6431V8.77416H6.2219ZM13.1406 21.8853L20.5198 14.4523L19.2007 13.1236L13.1406 19.228L10.515 16.5832L9.19595 17.9119L13.1406 21.8853Z" fill="white"/>
</g>
<defs>
<clipPath id="clip0_63_50">
<rect width="29.865" height="30.0829" fill="white"/>
</clipPath>
</defs>
</svg>
