<svg width="32" height="31" viewBox="0 0 32 31" fill="none" xmlns="http://www.w3.org/2000/svg">
<path d="M28.8 9.6001H22.4C21.5515 9.60094 20.7381 9.93836 20.1381 10.5383C19.5382 11.1382 19.2008 11.9517 19.2 12.8001V19.2001C19.2005 19.7657 19.4255 20.308 19.8254 20.708C20.2254 21.1079 20.7677 21.3329 21.3333 21.3334V28.8001C21.3338 29.3657 21.5588 29.908 21.9587 30.308C22.3587 30.7079 22.901 30.9329 23.4666 30.9334H27.7333C28.2989 30.9329 28.8412 30.7079 29.2412 30.308C29.6411 29.908 29.8661 29.3657 29.8666 28.8001V21.3334C30.4322 21.3329 30.9745 21.1079 31.3745 20.708C31.7744 20.308 31.9994 19.7657 32 19.2001V12.8001C31.9991 11.9517 31.6617 11.1382 31.0618 10.5383C30.4618 9.93836 29.6484 9.60094 28.8 9.6001ZM29.8666 19.2001H27.7333V28.8001H23.4666V19.2001H21.3333V12.8001C21.3333 12.5172 21.4457 12.2459 21.6457 12.0459C21.8457 11.8458 22.1171 11.7334 22.4 11.7334H28.8C29.0828 11.7334 29.3542 11.8458 29.5542 12.0459C29.7542 12.2459 29.8666 12.5172 29.8666 12.8001V19.2001Z" fill="white"/>
<path d="M21.3333 4.26667C21.3333 3.4228 21.5835 2.59789 22.0523 1.89624C22.5211 1.19459 23.1875 0.647717 23.9671 0.324783C24.7468 0.00184867 25.6047 -0.0826456 26.4323 0.0819847C27.26 0.246615 28.0202 0.652976 28.6169 1.24968C29.2136 1.84638 29.62 2.60663 29.7846 3.43428C29.9492 4.26194 29.8647 5.11982 29.5418 5.89945C29.2189 6.67908 28.672 7.34545 27.9704 7.81427C27.2687 8.2831 26.4438 8.53334 25.5999 8.53334C24.4687 8.53221 23.3841 8.08232 22.5842 7.28241C21.7843 6.4825 21.3344 5.39791 21.3333 4.26667ZM23.4666 4.26667C23.4666 4.6886 23.5917 5.10106 23.8261 5.45189C24.0605 5.80271 24.3937 6.07615 24.7835 6.23761C25.1733 6.39908 25.6023 6.44133 26.0161 6.35901C26.4299 6.2767 26.8101 6.07352 27.1084 5.77516C27.4068 5.47681 27.6099 5.09669 27.6923 4.68286C27.7746 4.26904 27.7323 3.84009 27.5709 3.45028C27.4094 3.06046 27.136 2.72728 26.7851 2.49287C26.4343 2.25845 26.0219 2.13334 25.5999 2.13334C25.0343 2.1339 24.492 2.35884 24.092 2.7588C23.6921 3.15875 23.4672 3.70105 23.4666 4.26667Z" fill="white"/>
<path d="M14.9333 16.0001V12.8001C14.9325 11.9517 14.5951 11.1382 13.9951 10.5383C13.3952 9.93836 12.5818 9.60094 11.7333 9.6001H5.33333C4.4849 9.60094 3.67146 9.93836 3.07153 10.5383C2.47159 11.1382 2.13418 11.9517 2.13333 12.8001V16.0001H0V18.1334H17.0667V16.0001H14.9333ZM4.26667 12.8001C4.26667 12.5172 4.37905 12.2459 4.57909 12.0459C4.77912 11.8458 5.05044 11.7334 5.33333 11.7334H11.7333C12.0162 11.7334 12.2875 11.8458 12.4876 12.0459C12.6876 12.2459 12.8 12.5172 12.8 12.8001V16.0001H4.26667V12.8001Z" fill="white"/>
<path d="M4.26672 4.26667C4.26672 3.4228 4.51696 2.59789 4.98579 1.89624C5.45461 1.19459 6.12098 0.647717 6.90061 0.324783C7.68024 0.00184867 8.53812 -0.0826456 9.36578 0.0819847C10.1934 0.246615 10.9537 0.652976 11.5504 1.24968C12.1471 1.84638 12.5534 2.60663 12.7181 3.43428C12.8827 4.26194 12.7982 5.11982 12.4753 5.89945C12.1523 6.67908 11.6055 7.34545 10.9038 7.81427C10.2022 8.2831 9.37726 8.53334 8.53339 8.53334C7.40215 8.53221 6.31756 8.08232 5.51765 7.28241C4.71774 6.4825 4.26785 5.39791 4.26672 4.26667ZM6.40006 4.26667C6.40006 4.6886 6.52518 5.10106 6.75959 5.45189C6.994 5.80271 7.32718 6.07615 7.717 6.23761C8.10681 6.39908 8.53576 6.44133 8.94958 6.35901C9.36341 6.2767 9.74353 6.07352 10.0419 5.77516C10.3402 5.47681 10.5434 5.09669 10.6257 4.68286C10.708 4.26904 10.6658 3.84009 10.5043 3.45028C10.3429 3.06046 10.0694 2.72728 9.71861 2.49287C9.36778 2.25845 8.95532 2.13334 8.53339 2.13334C7.96777 2.1339 7.42548 2.35884 7.02552 2.7588C6.62556 3.15875 6.40062 3.70105 6.40006 4.26667Z" fill="white"/>
</svg>
