<svg width="24" height="33" viewBox="0 0 24 33" fill="none" xmlns="http://www.w3.org/2000/svg">
<path d="M13.334 14.1429L21.27 29.0966C21.3096 29.1719 21.3314 29.2582 21.3333 29.3468C21.3351 29.4353 21.3169 29.5228 21.2805 29.6003C21.2441 29.6778 21.1907 29.7424 21.1261 29.7876C21.0614 29.8327 20.9876 29.8567 20.9124 29.8571H3.08755C3.01198 29.8567 2.93788 29.8324 2.87298 29.7868C2.80808 29.7412 2.75473 29.6759 2.71851 29.5978C2.68228 29.5197 2.66449 29.4315 2.66699 29.3425C2.66948 29.2536 2.69218 29.167 2.73271 29.0919L10.666 14.1429V3.14286H13.334V14.1429ZM5.33001 0V3.14286H7.998V13.2943L0.472916 27.4214C0.179509 27.9723 0.0166354 28.6056 0.00120798 29.2556C-0.0142194 29.9057 0.118362 30.5487 0.385185 31.118C0.652008 31.6873 1.04334 32.1621 1.51855 32.493C1.99376 32.824 2.53551 32.999 3.08755 33H20.9124C21.4645 32.999 22.0062 32.824 22.4814 32.493C22.9567 32.1621 23.348 31.6873 23.6148 31.118C23.8816 30.5487 24.0142 29.9057 23.9988 29.2556C23.9834 28.6056 23.8205 27.9723 23.5271 27.4214L16.0033 13.2943L16.002 3.14286H18.67V0H5.33001Z" fill="white"/>
</svg>
