<svg width="25" height="25" viewBox="0 0 25 25" fill="none" xmlns="http://www.w3.org/2000/svg">
<path d="M25 23.6607C25 24.0159 24.8589 24.3566 24.6077 24.6077C24.3566 24.8589 24.0159 25 23.6607 25H3.125C2.2962 25 1.50134 24.6708 0.915291 24.0847C0.32924 23.4987 0 22.7038 0 21.875V1.33929C0 0.984085 0.141103 0.643432 0.392268 0.392268C0.643432 0.141103 0.984085 0 1.33929 0C1.69449 0 2.03514 0.141103 2.2863 0.392268C2.53747 0.643432 2.67857 0.984085 2.67857 1.33929V21.875C2.67857 22.1214 2.87857 22.3214 3.125 22.3214H23.6607C24.0159 22.3214 24.3566 22.4625 24.6077 22.7137C24.8589 22.9649 25 23.3055 25 23.6607ZM16.0714 4.91071C16.0714 4.55551 16.2125 4.21486 16.4637 3.9637C16.7149 3.71253 17.0555 3.57143 17.4107 3.57143H23.6607C24.0159 3.57143 24.3566 3.71253 24.6077 3.9637C24.8589 4.21486 25 4.55551 25 4.91071V11.1607C25 11.5159 24.8589 11.8566 24.6077 12.1077C24.3566 12.3589 24.0159 12.5 23.6607 12.5C23.3055 12.5 22.9649 12.3589 22.7137 12.1077C22.4625 11.8566 22.3214 11.5159 22.3214 11.1607V8.14286L15.2321 15.2321C14.981 15.4829 14.6406 15.6238 14.2857 15.6238C13.9308 15.6238 13.5904 15.4829 13.3393 15.2321L10.7143 12.6071L6.75 16.5714C6.49612 16.808 6.16032 16.9368 5.81335 16.9307C5.46639 16.9245 5.13534 16.784 4.88996 16.5386C4.64458 16.2932 4.50402 15.9622 4.4979 15.6152C4.49178 15.2683 4.62057 14.9325 4.85714 14.6786L9.76786 9.76786C10.019 9.51705 10.3594 9.37618 10.7143 9.37618C11.0692 9.37618 11.4096 9.51705 11.6607 9.76786L14.2857 12.3929L20.4286 6.25H17.4107C17.0555 6.25 16.7149 6.1089 16.4637 5.85773C16.2125 5.60657 16.0714 5.26591 16.0714 4.91071Z" fill="white"/>
</svg>
