<svg width="31" height="31" viewBox="0 0 31 31" fill="none" xmlns="http://www.w3.org/2000/svg">
<g clip-path="url(#clip0_63_39)">
<path d="M20.8951 16.4575C22.6124 17.6232 23.8157 19.2026 23.8157 21.3084V25.0688H28.8295V21.3084C28.8295 18.5759 24.3547 16.9589 20.8951 16.4575Z" fill="white"/>
<path d="M18.8019 15.0413C21.572 15.0413 23.8157 12.7976 23.8157 10.0275C23.8157 7.25736 21.572 5.01367 18.8019 5.01367C18.2127 5.01367 17.6612 5.13902 17.1348 5.3145C18.1751 6.60556 18.8019 8.24759 18.8019 10.0275C18.8019 11.8074 18.1751 13.4494 17.1348 14.7405C17.6612 14.916 18.2127 15.0413 18.8019 15.0413Z" fill="white"/>
<path d="M11.281 15.0413C14.0512 15.0413 16.2949 12.7976 16.2949 10.0275C16.2949 7.25736 14.0512 5.01367 11.281 5.01367C8.5109 5.01367 6.26721 7.25736 6.26721 10.0275C6.26721 12.7976 8.5109 15.0413 11.281 15.0413ZM11.281 7.52058C12.6598 7.52058 13.7879 8.64869 13.7879 10.0275C13.7879 11.4063 12.6598 12.5344 11.281 12.5344C9.90224 12.5344 8.77412 11.4063 8.77412 10.0275C8.77412 8.64869 9.90224 7.52058 11.281 7.52058Z" fill="white"/>
<path d="M11.2811 16.2949C7.93434 16.2949 1.25342 17.9746 1.25342 21.3087V25.0691H21.3087V21.3087C21.3087 17.9746 14.6278 16.2949 11.2811 16.2949ZM18.8018 22.5622H3.76033V21.3213C4.01102 20.4188 7.89674 18.8018 11.2811 18.8018C14.6654 18.8018 18.5511 20.4188 18.8018 21.3087V22.5622Z" fill="white"/>
</g>
<defs>
<clipPath id="clip0_63_39">
<rect width="30.0829" height="30.0829" fill="white"/>
</clipPath>
</defs>
</svg>
